<?xml-stylesheet type="text/css" href="../base.css" ?>
<svg width="192" height="45" viewBox="0 0 192 45" fill="none" xmlns="http://www.w3.org/2000/svg">
<path class="logo__text" d="M65.0015 44L63.2095 38.568V10.82H71.0775V44H65.0015ZM49.5735 10.792V28.908C49.5735 32.6787 50.0588 35.2827 51.0295 36.72C52.0002 38.1387 53.5122 38.848 55.5655 38.848C57.6935 38.848 59.5042 38.0547 60.9975 36.468C62.4908 34.8627 63.2375 32.772 63.2375 30.196L67.1015 32.016C67.1015 34.8533 65.8322 37.6067 63.2935 40.276C60.7548 42.9453 57.2268 44.28 52.7095 44.28C48.5655 44.28 45.6908 42.936 44.0855 40.248C42.4988 37.56 41.7055 33.9013 41.7055 29.272V10.792H49.5735ZM92.3015 44.252C88.0828 44.252 84.5828 43.5707 81.8015 42.208C79.0388 40.8267 77.2842 38.4187 76.5375 34.984L83.4535 32.52C83.8268 34.7787 84.7882 36.44 86.3375 37.504C87.8868 38.568 89.9122 39.1 92.4135 39.1C94.6162 39.1 96.2962 38.736 97.4535 38.008C98.6295 37.28 99.2175 36.2907 99.2175 35.04C99.2175 33.304 98.2375 32.1747 96.2775 31.652C94.3362 31.1107 91.8628 30.5507 88.8575 29.972C85.2548 29.356 82.3428 28.3293 80.1215 26.892C77.9002 25.436 76.7895 23.0653 76.7895 19.78C76.7895 16.6813 78.0962 14.3667 80.7095 12.836C83.3228 11.2867 86.8228 10.512 91.2095 10.512C95.4842 10.512 98.9375 11.2027 101.57 12.584C104.202 13.9467 105.863 16.252 106.554 19.5L99.6375 21.964C99.2642 19.9667 98.3308 18.4173 96.8375 17.316C95.3628 16.196 93.4495 15.636 91.0975 15.636C88.8762 15.636 87.2242 16.0093 86.1415 16.756C85.0775 17.484 84.5455 18.492 84.5455 19.78C84.5455 21.404 85.4695 22.4867 87.3175 23.028C89.1655 23.5507 91.5268 24.092 94.4015 24.652C97.9855 25.2493 100.982 26.2013 103.39 27.508C105.798 28.796 107.002 31.1107 107.002 34.452C107.002 37.9053 105.732 40.4067 103.194 41.956C100.674 43.4867 97.0428 44.252 92.3015 44.252ZM127.302 44.252C123.083 44.252 119.583 43.5707 116.802 42.208C114.039 40.8267 112.284 38.4187 111.538 34.984L118.454 32.52C118.827 34.7787 119.788 36.44 121.338 37.504C122.887 38.568 124.912 39.1 127.414 39.1C129.616 39.1 131.296 38.736 132.454 38.008C133.63 37.28 134.218 36.2907 134.218 35.04C134.218 33.304 133.238 32.1747 131.278 31.652C129.336 31.1107 126.863 30.5507 123.858 29.972C120.255 29.356 117.343 28.3293 115.122 26.892C112.9 25.436 111.79 23.0653 111.79 19.78C111.79 16.6813 113.096 14.3667 115.71 12.836C118.323 11.2867 121.823 10.512 126.21 10.512C130.484 10.512 133.938 11.2027 136.57 12.584C139.202 13.9467 140.863 16.252 141.554 19.5L134.638 21.964C134.264 19.9667 133.331 18.4173 131.838 17.316C130.363 16.196 128.45 15.636 126.098 15.636C123.876 15.636 122.224 16.0093 121.142 16.756C120.078 17.484 119.546 18.492 119.546 19.78C119.546 21.404 120.47 22.4867 122.318 23.028C124.166 23.5507 126.527 24.092 129.402 24.652C132.986 25.2493 135.982 26.2013 138.39 27.508C140.798 28.796 142.002 31.1107 142.002 34.452C142.002 37.9053 140.732 40.4067 138.194 41.956C135.674 43.4867 132.043 44.252 127.302 44.252ZM162.078 44.28C156.272 44.28 152.166 42.7773 149.758 39.772C147.331 36.748 146.118 32.6133 146.118 27.368C146.118 21.8987 147.35 17.7173 149.814 14.824C152.259 11.9307 156.3 10.484 161.938 10.484C167.762 10.484 171.85 11.94 174.202 14.852C176.516 17.8013 177.674 21.9547 177.674 27.312C177.674 28.1893 177.618 28.992 177.506 29.72H152.978V24.932H169.722C169.535 21.572 168.891 19.22 167.79 17.876C166.39 16.3453 164.448 15.58 161.966 15.58C159.52 15.58 157.542 16.4013 156.03 18.044C154.499 19.668 153.734 22.776 153.734 27.368C153.734 31.8107 154.49 34.8813 156.002 36.58C157.476 38.316 159.502 39.184 162.078 39.184V44.28ZM162.078 39.184C163.571 39.184 164.84 38.9693 165.886 38.54C166.931 38.092 167.752 37.336 168.35 36.272C168.928 35.208 169.395 33.9947 169.75 32.632L176.806 34.592C176.451 36.8133 175.63 38.6427 174.342 40.08C173.054 41.536 171.467 42.6 169.582 43.272C167.696 43.944 165.195 44.28 162.078 44.28V39.184ZM183.48 44V0.0399971H191.348V44H183.48Z" fill="black"/>
<g clip-path="url(#clip0_9_97)">
<mask id="mask0_9_97" style="mask-type:alpha" maskUnits="userSpaceOnUse" x="-1" y="15" width="22" height="19">
<path fill-rule="evenodd" clip-rule="evenodd" d="M8.67779 23.1366C4.0354 26.9433 1.67248 31.7673 3.40017 33.9113L0.468637 30.2734C0.181134 29.9166 -0.0215422 29.4951 -0.00445591 29.0355C0.0483314 27.6154 0.789184 24.15 6.03083 19.8519C11.2725 15.5538 14.7868 15.53 16.1756 15.768C16.6252 15.845 16.9928 16.1312 17.2803 16.488L20.2118 20.1259C18.4841 17.9819 13.3202 19.3299 8.67779 23.1366Z" fill="#FF7811"/>
</mask>
<g mask="url(#mask0_9_97)">
<path fill-rule="evenodd" clip-rule="evenodd" d="M8.67779 23.1366C4.0354 26.9433 1.9838 31.512 3.71149 33.656L0.587431 30.3239C0.223627 29.9358 -0.0308171 29.4521 0.00123594 28.9187C0.090595 27.4318 0.927593 24.0365 6.03083 19.8519C11.1341 15.6673 14.6 15.5343 16.0612 15.7497C16.5853 15.827 17.0028 16.1771 17.305 16.6156L19.9005 20.3812C18.1728 18.2372 13.3202 19.3299 8.67779 23.1366Z" fill="#FFAE2D"/>
<path fill-rule="evenodd" clip-rule="evenodd" d="M8.94713 23.4707C4.64901 26.995 2.44836 31.445 4.03193 33.4101L1.23828 29.9434C1.04493 29.7035 0.909863 29.4214 0.910371 29.112C0.912309 27.9331 1.43764 24.6282 6.52098 20.46C11.6043 16.2919 14.9188 16.4482 16.0634 16.6871C16.3637 16.7498 16.6099 16.9407 16.8032 17.1807L19.5969 20.6474C18.0133 18.6823 13.2453 19.9464 8.94713 23.4707Z" fill="#FF7811"/>
</g>
<path class="logo__text" fill-rule="evenodd" clip-rule="evenodd" d="M6.26685 33.4591V44H14.3893V28.1532C14.2224 28.3703 14.0485 28.5909 13.8674 28.8151C11.0119 32.349 8.31695 33.3682 6.26685 33.4591ZM6.26685 28.5212C7.96794 28.1299 9.61706 27.3868 10.8674 26.3151C12.4208 24.9836 13.6064 23.2945 14.3893 21.4179V10.8771H24.3928C26.1788 10.8771 27.4138 11.4215 28.0978 12.5103C28.7818 13.58 29.1238 15.0604 29.1238 16.9515C29.1238 18.8235 28.7818 20.3039 28.0978 21.3927C27.4328 22.4624 26.1978 22.9973 24.3928 22.9973H17.456C16.9047 24.3874 15.9808 26.0652 14.4758 28.0402H22.002L29.0098 44H37.7878L30.1505 27.737C32.4501 27.2816 34.0933 26.3129 35.0803 24.8311C36.5243 22.6726 37.2463 20.0174 37.2463 16.8655C37.2463 13.6755 36.5528 10.9535 35.1658 8.69942C33.7978 6.44538 31.0808 5.31836 27.0148 5.31836H6.26685V28.5212Z" fill="black"/>
<path fill-rule="evenodd" clip-rule="evenodd" d="M11.6604 26.8358C16.2455 23.0989 18.2043 18.5208 16.4146 16.3012L19.6681 19.7947C20.0244 20.1773 20.2785 20.6498 20.2621 21.1739C20.2156 22.6639 19.4751 26.102 14.4023 30.2363C9.32957 34.3707 5.83066 34.3878 4.37096 34.1253C3.85755 34.033 3.45033 33.6853 3.15173 33.2557L0.425165 29.3327C2.21486 31.5523 7.07519 30.5728 11.6604 26.8358Z" fill="#FFAE2D"/>
</g>
<defs>
<clipPath id="clip0_9_97">
<rect width="38" height="45" fill="white"/>
</clipPath>
</defs>
</svg>
