<svg width="38" height="45" viewBox="0 0 38 45" fill="none" xmlns="http://www.w3.org/2000/svg">
<g clip-path="url(#clip0_9_161)">
<mask id="mask0_9_161" style="mask-type:alpha" maskUnits="userSpaceOnUse" x="-1" y="15" width="22" height="19">
<path fill-rule="evenodd" clip-rule="evenodd" d="M8.67779 23.1366C4.0354 26.9433 1.67248 31.7673 3.40017 33.9113L0.468637 30.2734C0.181134 29.9166 -0.0215422 29.4951 -0.00445591 29.0355C0.0483314 27.6154 0.789184 24.15 6.03083 19.8519C11.2725 15.5538 14.7868 15.53 16.1756 15.768C16.6252 15.845 16.9928 16.1312 17.2803 16.488L20.2118 20.1259C18.4841 17.9819 13.3202 19.3299 8.67779 23.1366Z" fill="#FF7811"/>
</mask>
<g mask="url(#mask0_9_161)">
<path fill-rule="evenodd" clip-rule="evenodd" d="M8.67779 23.1366C4.0354 26.9433 1.9838 31.512 3.71149 33.656L0.587431 30.3239C0.223627 29.9358 -0.0308171 29.4521 0.00123594 28.9187C0.090595 27.4318 0.927593 24.0365 6.03083 19.8519C11.1341 15.6673 14.6 15.5343 16.0612 15.7497C16.5853 15.827 17.0028 16.1771 17.305 16.6156L19.9005 20.3812C18.1728 18.2372 13.3202 19.3299 8.67779 23.1366Z" fill="#FFAE2D"/>
<path fill-rule="evenodd" clip-rule="evenodd" d="M8.94713 23.4707C4.64901 26.995 2.44836 31.445 4.03193 33.4101L1.23828 29.9434C1.04493 29.7035 0.909863 29.4214 0.910371 29.112C0.912309 27.9331 1.43764 24.6282 6.52098 20.46C11.6043 16.2919 14.9188 16.4482 16.0634 16.6871C16.3637 16.7498 16.6099 16.9408 16.8032 17.1807L19.5969 20.6474C18.0133 18.6823 13.2453 19.9464 8.94713 23.4707Z" fill="#FF7811"/>
</g>
<path fill-rule="evenodd" clip-rule="evenodd" d="M6.26685 33.4591V44H14.3893V28.1532C14.2224 28.3703 14.0485 28.5909 13.8674 28.8151C11.0119 32.349 8.31695 33.3682 6.26685 33.4591ZM6.26685 28.5212C7.96794 28.1299 9.61706 27.3868 10.8674 26.3151C12.4208 24.9836 13.6064 23.2945 14.3893 21.4179V10.8771H24.3928C26.1788 10.8771 27.4138 11.4215 28.0978 12.5103C28.7818 13.58 29.1238 15.0604 29.1238 16.9515C29.1238 18.8235 28.7818 20.3039 28.0978 21.3927C27.4328 22.4624 26.1978 22.9973 24.3928 22.9973H17.456C16.9047 24.3874 15.9808 26.0652 14.4758 28.0402H22.002L29.0098 44H37.7878L30.1505 27.737C32.4501 27.2816 34.0933 26.3129 35.0803 24.8311C36.5243 22.6726 37.2463 20.0174 37.2463 16.8655C37.2463 13.6755 36.5528 10.9535 35.1658 8.69942C33.7978 6.44538 31.0808 5.31836 27.0148 5.31836H6.26685V28.5212Z" fill="white"/>
<path fill-rule="evenodd" clip-rule="evenodd" d="M11.6604 26.8358C16.2455 23.0989 18.2043 18.5208 16.4146 16.3012L19.6681 19.7947C20.0244 20.1773 20.2785 20.6498 20.2621 21.1739C20.2156 22.664 19.4751 26.102 14.4023 30.2364C9.32957 34.3707 5.83066 34.3878 4.37096 34.1253C3.85755 34.033 3.45033 33.6853 3.15173 33.2557L0.425165 29.3328C2.21486 31.5523 7.07519 30.5728 11.6604 26.8358Z" fill="#FFAE2D"/>
</g>
<defs>
<clipPath id="clip0_9_161">
<rect width="38" height="45" fill="white"/>
</clipPath>
</defs>
</svg>
